<?xml version="1.0" encoding="UTF-8" standalone="no"?><!DOCTYPE svg PUBLIC "-//W3C//DTD SVG 1.1//EN" "http://www.w3.org/Graphics/SVG/1.1/DTD/svg11.dtd"><svg width="100%" height="100%" viewBox="0 0 41 148" version="1.1" xmlns="http://www.w3.org/2000/svg" xmlns:xlink="http://www.w3.org/1999/xlink" xml:space="preserve" style="fill-rule:evenodd;clip-rule:evenodd;stroke-linecap:round;stroke-miterlimit:1.5;"><g id="_029f02a2.-403f.-4bc2.-b269.-f52180ac0a5c"><g id="Fundament"><path d="M40.029,138.86l0,0l0,3.428l0,0c0,2.667 -8.96,4.833 -19.997,4.833c-11.036,0 -19.996,-2.166 -19.997,-4.833l0,0l0,-3.428l0,0c0.001,2.667 8.961,4.833 19.997,4.833c11.037,0 19.997,-2.166 19.997,-4.833Z" style="fill:#7a7d7e;"/><path d="M40,141.877l0,0c0,1.907 -4.581,3.558 -11.226,4.344l0,-3.428c6.645,-0.786 11.226,-2.437 11.226,-4.344l0,0l0,3.428Z" style="fill:#747677;"/><ellipse cx="20.003" cy="139.358" rx="19.997" ry="4.834" style="fill:#989898;"/></g><g id="Block-.23.1"><path d="M38.25,112.607l0.003,0l0,25.684l-0.013,0c-0.359,2.363 -8.407,4.255 -18.269,4.255c-9.862,0 -17.91,-1.892 -18.269,-4.255l-0.013,0l0,-25.684l0.004,0c0.189,2.4 8.307,4.334 18.278,4.334c9.972,0 18.089,-1.934 18.279,-4.334Z" style="fill:#fff;"/><path d="M38.253,138.291l-0.013,0c-0.243,1.599 -4.005,2.981 -9.466,3.709l0,-25.605c5.551,-0.739 9.347,-2.156 9.476,-3.788l0.003,0l0,25.684Z" style="fill:#f2f2f2;"/></g><g id="Block-.23.2"><path d="M38.25,87.106l0.003,0l0,25.684l-0.013,0c-0.359,2.363 -8.407,4.254 -18.269,4.254c-9.862,0 -17.91,-1.891 -18.269,-4.254l-0.013,0l0,-25.684l0.004,0c0.189,2.399 8.307,4.333 18.278,4.333c9.972,0 18.089,-1.934 18.279,-4.333Z" style="fill:#ff685d;"/><path d="M38.253,112.79l-0.013,0c-0.243,1.598 -4.005,2.981 -9.466,3.708l0,-25.604c5.551,-0.74 9.347,-2.156 9.476,-3.788l0.003,0l0,25.684Z" style="fill:#ff5d52;"/></g><g id="Block-.23.3"><path d="M38.25,61.758l0.003,0l0,25.684l-0.013,0c-0.359,2.363 -8.407,4.254 -18.269,4.254c-9.862,0 -17.91,-1.891 -18.269,-4.254l-0.013,0l0,-25.684l0.004,0c0.189,2.4 8.307,4.333 18.278,4.333c9.972,0 18.089,-1.933 18.279,-4.333Z" style="fill:#fff;"/><path d="M38.253,87.442l-0.013,0c-0.243,1.598 -4.005,2.981 -9.466,3.708l0,-25.604c5.551,-0.74 9.347,-2.156 9.476,-3.788l0.003,0l0,25.684Z" style="fill:#f2f2f2;"/></g><g id="Block-.23.4"><path d="M38.25,36.257l0.003,0l0,25.684l-0.013,0c-0.359,2.362 -8.407,4.254 -18.269,4.254c-9.862,0 -17.91,-1.892 -18.269,-4.254l-0.013,0l0,-25.684l0.004,0c0.189,2.399 8.307,4.333 18.278,4.333c9.972,0 18.089,-1.934 18.279,-4.333Z" style="fill:#ff685d;"/><path d="M38.253,61.941l-0.013,0c-0.243,1.598 -4.005,2.981 -9.466,3.708l0,-25.605c5.551,-0.739 9.347,-2.156 9.476,-3.787l0.003,0l0,25.684Z" style="fill:#ff5d52;"/></g><g id="Rahmen-Kopf"><ellipse cx="19.997" cy="33.089" rx="19.997" ry="4.834" style="fill:#676767;"/><path d="M39.994,32.746l0,0l0,3.428l0,0c-0.001,2.668 -8.961,4.834 -19.997,4.834c-11.037,0 -19.997,-2.166 -19.997,-4.834l0,0l0,-3.428l0,0c0,2.668 8.96,4.834 19.997,4.834c11.036,0 19.997,-2.166 19.997,-4.834Z" style="fill:#535353;"/><path d="M39.994,36.174l0,0c-0.001,1.907 -4.579,3.558 -11.22,4.344l0,-3.428c6.642,-0.786 11.22,-2.437 11.22,-4.344l0,0l0,3.428Z" style="fill:#4d4d4d;"/></g><g id="Template"><path d="M38.25,15.393l0.003,0l0,16.542l-0.013,0c-0.359,2.363 -8.407,4.254 -18.269,4.254c-9.862,0 -17.91,-1.891 -18.269,-4.254l-0.013,0l0,-16.542l0.004,0c0.189,2.399 8.307,4.333 18.278,4.333c9.972,0 18.089,-1.934 18.279,-4.333Z" style="fill:#ffd02b;"/><path d="M38.253,31.935l-0.013,0c-0.243,1.599 -4.005,2.981 -9.466,3.709l0,-16.464c5.551,-0.739 9.347,-2.155 9.476,-3.787l0.003,0l0,16.542Z" style="fill:#f9c200;"/><path d="M1.689,32.232l0.004,-16.509" style="fill:none;stroke:#535353;stroke-width:0.3px;"/><path d="M12.265,35.75l0.003,-16.509" style="fill:none;stroke:#535353;stroke-width:0.3px;"/><path d="M38.25,32.232l0.003,-16.509" style="fill:none;stroke:#535353;stroke-width:0.3px;"/><path d="M28.774,35.66l0.003,-16.509" style="fill:none;stroke:#535353;stroke-width:0.3px;stroke-miterlimit:9;"/></g><g id="Rahmen-Kopf1"><path d="M40,12.178l0,0l0,3.428l0,0c0,2.668 -8.961,4.834 -19.997,4.834c-11.036,0 -19.997,-2.166 -19.997,-4.834l0,0l0,-3.428l0,0c0,2.668 8.961,4.833 19.997,4.833c11.037,0 19.997,-2.165 19.997,-4.833Z" style="fill:#535353;"/><path d="M40,15.606l0,0c0,1.908 -4.581,3.558 -11.226,4.344l0,-3.428c6.645,-0.786 11.226,-2.437 11.226,-4.344l0,0l0,3.428Z" style="fill:#4c4c4c;"/><ellipse cx="20.003" cy="12.521" rx="19.997" ry="4.834" style="fill:#676767;"/></g><g><path id="Dach" d="M38.242,11.308l0.001,0l0,0.001l0,0l0,0c-0.322,2.371 -8.386,4.271 -18.272,4.271c-9.886,0 -17.949,-1.9 -18.272,-4.271l0,0l0,0l0,-0.001l0.001,0l18.271,-11.308l18.271,11.308Z" style="fill:#ff685d;"/><path d="M38.242,11.308l0.001,0l0,0.001l0,0l0,0c-0.22,1.613 -4.024,3.009 -9.549,3.736l-8.764,-15.019l0.041,-0.026l18.271,11.308Z" style="fill:#ff584c;"/></g></g></svg>