<?xml version="1.0" encoding="UTF-8" standalone="no"?><!DOCTYPE svg PUBLIC "-//W3C//DTD SVG 1.1//EN" "http://www.w3.org/Graphics/SVG/1.1/DTD/svg11.dtd"><svg width="100%" height="100%" viewBox="0 0 103 71" version="1.1" xmlns="http://www.w3.org/2000/svg" xmlns:xlink="http://www.w3.org/1999/xlink" xml:space="preserve" style="fill-rule:evenodd;clip-rule:evenodd;stroke-linejoin:round;stroke-miterlimit:1.41421;"><g id="_880b3bee.-3e69.-4645.-89c1.-6669ffd0851b"><path d="M70.439,61.485l-70.439,-35.219l31.998,-15.999l70.487,35.195l-32.046,16.023Zm-68.794,-53.904l30.353,2.686l-31.998,15.999l1.645,-18.685Z" style="fill:#8cb98f;"/><path d="M70.399,59.902l-67.963,-33.986l28.838,-14.453l67.966,34.019l-28.841,14.42Zm-66.479,-50.841l27.354,2.402l-28.838,14.453l1.484,-16.855Z" style="fill:#9d9d9d;"/><path d="M0,26.266l6.491,12.197l63.996,31.999l-0.048,-8.977l-70.439,-35.219Z" style="fill:#67ab6c;"/><path d="M102.485,45.462l-0.048,9.024l-31.95,15.976l-0.048,-8.977l32.046,-16.023Z" style="fill:#4b8c50;"/><g><path d="M31.274,11.463l0,2.241l65.684,32.921l2.282,-1.143l-67.966,-34.019Z" style="fill:#59755b;"/><path d="M3.951,9.046l27.323,2.417l0,2.244l-27.585,-2.469l0.262,-2.192Z" style="fill:#6d916f;"/></g><g><g><g><path d="M23.393,9.804l12.386,6.193l6.193,-3.097l-12.386,-6.193l-6.193,3.097Z" style="fill:#d07474;"/><path d="M35.779,22.19l-12.386,-6.193l0,-6.193l12.387,6.193l-0.001,6.193Z" style="fill:#d45858;"/><path d="M41.973,12.9l-6.193,3.097l-0.001,6.193l6.193,-3.097l0.001,-6.193Z" style="fill:#b53939;"/></g><g><path d="M16.811,13.095l12.386,6.193l6.193,-3.097l-12.386,-6.193l-6.193,3.097Z" style="fill:#d07474;"/><path d="M29.197,25.481l-12.386,-6.193l0,-6.193l12.386,6.193l0,6.193Z" style="fill:#d45858;"/><path d="M35.391,16.191l-6.194,3.097l0,6.193l6.193,-3.097l0.001,-6.193Z" style="fill:#b53939;"/></g><g><path d="M10.224,16.388l12.386,6.193l6.193,-3.096l-12.386,-6.193l-6.193,3.096Z" style="fill:#d07474;"/><path d="M22.61,28.775l-12.386,-6.193l0,-6.194l12.387,6.193l-0.001,6.194Z" style="fill:#d45858;"/><path d="M28.804,19.485l-6.193,3.097l-0.001,6.193l6.193,-3.097l0.001,-6.193Z" style="fill:#b53939;"/></g><g><path d="M3.628,19.686l12.386,6.193l6.193,-3.096l-12.386,-6.193l-6.193,3.096Z" style="fill:#d07474;"/><path d="M16.014,32.073l-12.386,-6.193l0,-6.194l12.386,6.194l0,6.193Z" style="fill:#d45858;"/><path d="M22.208,22.783l-6.194,3.097l0,6.193l6.193,-3.097l0.001,-6.193Z" style="fill:#b53939;"/></g></g><g><g><path d="M36.411,16.313l12.386,6.193l6.194,-3.097l-12.387,-6.193l-6.193,3.097Z" style="fill:#d07474;"/><path d="M48.797,28.699l-12.386,-6.193l0,-6.193l12.387,6.193l-0.001,6.193Z" style="fill:#d45858;"/><path d="M54.991,19.409l-6.193,3.097l-0.001,6.193l6.194,-3.097l0,-6.193Z" style="fill:#b53939;"/></g><g><path d="M29.829,19.604l12.386,6.193l6.193,-3.097l-12.386,-6.193l-6.193,3.097Z" style="fill:#d07474;"/><path d="M42.215,31.99l-12.386,-6.193l0,-6.193l12.387,6.193l-0.001,6.193Z" style="fill:#d45858;"/><path d="M48.409,22.701l-6.193,3.096l-0.001,6.193l6.193,-3.096l0.001,-6.193Z" style="fill:#b53939;"/></g><g><path d="M23.242,22.897l12.386,6.193l6.194,-3.096l-12.387,-6.193l-6.193,3.096Z" style="fill:#d07474;"/><path d="M35.628,35.284l-12.386,-6.193l0,-6.194l12.387,6.194l-0.001,6.193Z" style="fill:#d45858;"/><path d="M41.822,25.994l-6.193,3.097l-0.001,6.193l6.194,-3.097l0,-6.193Z" style="fill:#b53939;"/></g><g><path d="M16.646,26.195l12.386,6.193l6.193,-3.096l-12.386,-6.193l-6.193,3.096Z" style="fill:#d07474;"/><path d="M29.032,38.582l-12.386,-6.193l0,-6.194l12.387,6.194l-0.001,6.193Z" style="fill:#d45858;"/><path d="M35.226,29.292l-6.193,3.097l-0.001,6.193l6.193,-3.097l0.001,-6.193Z" style="fill:#b53939;"/></g></g><g><g><path d="M49.429,22.822l12.387,6.193l6.193,-3.097l-12.387,-6.193l-6.193,3.097Z" style="fill:#d07474;"/><path d="M61.816,35.208l-12.387,-6.193l0.001,-6.193l12.386,6.193l0,6.193Z" style="fill:#d45858;"/><path d="M68.009,25.918l-6.193,3.097l0,6.193l6.193,-3.097l0,-6.193Z" style="fill:#b53939;"/></g><g><path d="M42.847,26.113l12.386,6.193l6.193,-3.097l-12.386,-6.193l-6.193,3.097Z" style="fill:#d07474;"/><path d="M55.233,38.5l-12.386,-6.194l0,-6.193l12.387,6.193l-0.001,6.194Z" style="fill:#d45858;"/><path d="M61.427,29.21l-6.193,3.097l-0.001,6.193l6.193,-3.097l0.001,-6.193Z" style="fill:#b53939;"/></g><g><path d="M36.26,29.406l12.386,6.193l6.194,-3.096l-12.387,-6.193l-6.193,3.096Z" style="fill:#d07474;"/><path d="M48.646,41.793l-12.386,-6.193l0,-6.194l12.387,6.194l-0.001,6.193Z" style="fill:#d45858;"/><path d="M54.84,32.503l-6.193,3.097l-0.001,6.193l6.194,-3.097l0,-6.193Z" style="fill:#b53939;"/></g><g><path d="M29.664,32.704l12.386,6.193l6.193,-3.096l-12.386,-6.193l-6.193,3.096Z" style="fill:#d07474;"/><path d="M42.05,45.091l-12.386,-6.193l0,-6.194l12.387,6.194l-0.001,6.193Z" style="fill:#d45858;"/><path d="M48.244,35.801l-6.193,3.097l-0.001,6.193l6.193,-3.097l0.001,-6.193Z" style="fill:#b53939;"/></g></g></g><g><g><g><path d="M23.393,3.097l12.386,6.193l6.193,-3.097l-12.386,-6.193l-6.193,3.097Z" style="fill:#d07474;"/><path d="M35.779,15.483l-12.386,-6.193l0,-6.193l12.387,6.193l-0.001,6.193Z" style="fill:#d45858;"/><path d="M41.973,6.193l-6.193,3.097l-0.001,6.193l6.193,-3.097l0.001,-6.193Z" style="fill:#b53939;"/></g><g><path d="M16.811,6.388l12.386,6.193l6.193,-3.097l-12.386,-6.193l-6.193,3.097Z" style="fill:#d07474;"/><path d="M29.197,18.774l-12.386,-6.193l0,-6.193l12.386,6.193l0,6.193Z" style="fill:#d45858;"/><path d="M35.391,9.484l-6.194,3.097l0,6.193l6.193,-3.097l0.001,-6.193Z" style="fill:#b53939;"/></g><g><path d="M10.224,9.681l12.386,6.193l6.193,-3.096l-12.386,-6.193l-6.193,3.096Z" style="fill:#d07474;"/><path d="M22.61,22.068l-12.386,-6.193l0,-6.194l12.387,6.193l-0.001,6.194Z" style="fill:#d45858;"/><path d="M28.804,12.778l-6.193,3.097l-0.001,6.193l6.193,-3.097l0.001,-6.193Z" style="fill:#b53939;"/></g><g><path d="M3.628,12.979l12.386,6.193l6.193,-3.096l-12.386,-6.193l-6.193,3.096Z" style="fill:#d07474;"/><path d="M16.014,25.366l-12.386,-6.193l0,-6.194l12.386,6.194l0,6.193Z" style="fill:#d45858;"/><path d="M22.208,16.076l-6.194,3.097l0,6.193l6.193,-3.097l0.001,-6.193Z" style="fill:#b53939;"/></g></g><g><g><path d="M36.411,9.606l12.386,6.193l6.194,-3.097l-12.387,-6.193l-6.193,3.097Z" style="fill:#d07474;"/><path d="M48.797,21.992l-12.386,-6.193l0,-6.193l12.387,6.193l-0.001,6.193Z" style="fill:#d45858;"/><path d="M54.991,12.702l-6.193,3.097l-0.001,6.193l6.194,-3.097l0,-6.193Z" style="fill:#b53939;"/></g><g><path d="M29.829,12.897l12.386,6.193l6.193,-3.097l-12.386,-6.193l-6.193,3.097Z" style="fill:#d07474;"/><path d="M42.215,25.284l-12.386,-6.194l0,-6.193l12.387,6.193l-0.001,6.194Z" style="fill:#d45858;"/><path d="M48.409,15.994l-6.193,3.097l-0.001,6.193l6.193,-3.097l0.001,-6.193Z" style="fill:#b53939;"/></g><g><path d="M23.242,16.19l12.386,6.193l6.194,-3.096l-12.387,-6.193l-6.193,3.096Z" style="fill:#d07474;"/><path d="M35.628,28.577l-12.386,-6.193l0,-6.194l12.387,6.194l-0.001,6.193Z" style="fill:#d45858;"/><path d="M41.822,19.287l-6.193,3.097l-0.001,6.193l6.194,-3.097l0,-6.193Z" style="fill:#b53939;"/></g><g><path d="M16.646,19.488l12.386,6.193l6.193,-3.096l-12.386,-6.193l-6.193,3.096Z" style="fill:#d07474;"/><path d="M29.032,31.875l-12.386,-6.193l0,-6.194l12.387,6.194l-0.001,6.193Z" style="fill:#d45858;"/><path d="M35.226,22.585l-6.193,3.097l-0.001,6.193l6.193,-3.097l0.001,-6.193Z" style="fill:#b53939;"/></g></g><g><g><path d="M49.429,16.115l12.387,6.193l6.193,-3.097l-12.387,-6.193l-6.193,3.097Z" style="fill:#d07474;"/><path d="M61.816,28.501l-12.387,-6.193l0.001,-6.193l12.386,6.193l0,6.193Z" style="fill:#d45858;"/><path d="M68.009,19.211l-6.193,3.097l0,6.193l6.193,-3.097l0,-6.193Z" style="fill:#b53939;"/></g><g><path d="M42.847,19.406l12.386,6.193l6.193,-3.097l-12.386,-6.193l-6.193,3.097Z" style="fill:#d07474;"/><path d="M55.233,31.793l-12.386,-6.194l0,-6.193l12.387,6.193l-0.001,6.194Z" style="fill:#d45858;"/><path d="M61.427,22.503l-6.193,3.097l-0.001,6.193l6.193,-3.097l0.001,-6.193Z" style="fill:#b53939;"/></g><g><path d="M36.26,22.699l12.386,6.193l6.194,-3.096l-12.387,-6.193l-6.193,3.096Z" style="fill:#d07474;"/><path d="M48.646,35.086l-12.386,-6.193l0,-6.194l12.387,6.194l-0.001,6.193Z" style="fill:#d45858;"/><path d="M54.84,25.796l-6.193,3.097l-0.001,6.193l6.194,-3.097l0,-6.193Z" style="fill:#b53939;"/></g><g><path d="M29.664,25.997l12.386,6.194l6.193,-3.097l-12.386,-6.193l-6.193,3.096Z" style="fill:#d07474;"/><path d="M42.05,38.384l-12.386,-6.193l0,-6.193l12.387,6.193l-0.001,6.193Z" style="fill:#d45858;"/><path d="M48.244,29.094l-6.193,3.097l-0.001,6.193l6.193,-3.097l0.001,-6.193Z" style="fill:#b53939;"/></g></g></g><g><path d="M69.679,13.534l-21.107,10.556l9.794,4.896l21.109,-10.554l-9.796,-4.898Z" style="fill:#fff;"/><path d="M79.475,40.432l-21.109,10.555l0,-22.001l21.109,-10.554l0,22Z" style="fill:#e6e6e6;"/><path d="M58.366,28.986l-9.797,-4.897l0.003,22.001l9.794,4.897l0,-22.001Z" style="fill:#f2f2f2;"/></g><g><path d="M89.287,48.209l-15.368,7.684l-12.683,-6.342l15.368,-7.684l12.683,6.342Z" style="fill:#8d8d8d;"/><path d="M89.287,38.209l-15.368,7.684l-12.683,-6.342l15.368,-7.684l12.683,6.342Z" style="fill:#a9a9a9;"/><path d="M61.236,49.551l12.683,6.342l0,-10l-12.683,-6.342l0,10Z" style="fill:#8c8c8c;"/><path d="M89.287,48.209l0,-10l-15.368,7.684l0,10l15.368,-7.684Z" style="fill:#737373;"/></g><g><path d="M72.142,31.846l-5.151,-2.575l4.819,-2.409l5.151,2.575l-4.819,2.409Z" style="fill:#bfbfbf;"/><path d="M73.941,40.149l4.819,-2.41l-1.799,-8.302l-4.819,2.409l1.799,8.303Z" style="fill:#808080;"/><path d="M66.991,36.674l6.95,3.475l-1.799,-8.303l-5.151,-2.575l0,7.403Z" style="fill:#999;"/><g><path d="M73.864,29.218l0,0c0,0.003 0,0.006 0,0.008c0,0.515 -0.836,0.933 -1.865,0.933c-1.03,0 -1.866,-0.418 -1.866,-0.933c0,-0.002 0,-0.005 0,-0.008l0,0l0,-0.997l3.731,0l0,0.997Z" style="fill:#e2e2e2;"/><path d="M73.864,29.218l0,0c0,0.003 0,0.006 0,0.008c0,0.262 -0.215,0.498 -0.563,0.668l0,-1.673l0.563,0l0,0.997Z" style="fill:#dbdbdb;"/><ellipse cx="71.999" cy="28.226" rx="1.866" ry="0.933" style="fill:#f5f5f5;"/><ellipse cx="71.976" cy="28.215" rx="1.389" ry="0.695" style="fill:#454545;"/><path d="M72.602,27.595c0.452,0.114 0.763,0.349 0.763,0.62c0,0.271 -0.311,0.506 -0.763,0.62l0,-1.24Z" style="fill:#373737;"/></g></g></g></svg>