<svg xmlns="http://www.w3.org/2000/svg" xmlns:xlink="http://www.w3.org/1999/xlink"><defs><style>
    .sprite-symbol-usage {display: none;}
    .sprite-symbol-usage:target {display: inline;}
  </style><symbol viewBox="0 0 64 32" id="tile-49cb0a4e-6625-11e7-907b-a6006ad3dba0"><path id="tile-49cb0a4e-6625-11e7-907b-a6006ad3dba0__49cb0a4e.-6625.-11e7.-907b.-a6006ad3dba0" d="M0,15.999l31.998,-15.999l31.998,15.999l-31.998,15.999l-31.998,-15.999Z" style="fill:#fae4b2;" /></symbol><symbol viewBox="0 0 64 32" id="tile-81cd09d3-9023-45d1-a2c7-bbbee99a64a3"><path id="tile-81cd09d3-9023-45d1-a2c7-bbbee99a64a3_w" d="M0,15.999l31.998,-15.999l31.998,15.999l-31.998,15.999l-31.998,-15.999Z" style="fill:#ffffff;" /></symbol><symbol viewBox="0 0 64 32" id="tile-d337bf94-4705-48f6-941a-8c5c8502a8f8"><path id="tile-d337bf94-4705-48f6-941a-8c5c8502a8f8_d337bf94.-4705.-48f6.-941a.-8c5c8502a8f8" d="M0,15.999l31.998,-15.999l31.998,15.999l-31.998,15.999l-31.998,-15.999Z" style="fill:#a0d5f4;" /></symbol><symbol viewBox="0 0 64 32" id="tile-1079ddbe-b99d-4366-9f91-df3a390970fb"><g id="tile-1079ddbe-b99d-4366-9f91-df3a390970fb__1079ddbe.-b99d.-4366.-9f91.-df3a390970fb"><path id="tile-1079ddbe-b99d-4366-9f91-df3a390970fb__49cb0a4e.-6625.-11e7.-907b.-a6006ad3dba0" d="M0,15.999l31.998,-15.999l31.998,15.999l-31.998,15.999l-31.998,-15.999Z" style="fill:#fae4b2;" /><path d="M34.15,30.922l-32.027,-15.985l-2.103,1.052l31.998,15.999l2.132,-1.066Z" style="fill:#a0d5f4;" /></g></symbol><symbol viewBox="0 0 64 32" id="tile-adcc36d7-aad8-46d6-971d-f58055c484b2">
	<g id="tile-adcc36d7-aad8-46d6-971d-f58055c484b2_adcc36d7.-aad8.-46d6.-971d.-f58055c484b2">
		<path id="tile-adcc36d7-aad8-46d6-971d-f58055c484b2__49cb0a4e.-6625.-11e7.-907b.-a6006ad3dba0" d="M0,15.989l32.018,-15.989l31.998,15.999l-31.998,15.999l-32.018,-16.009Z" style="fill:#fae4b2;" /><path d="M27.329,27.528c3.06,1.527 6.66,1.535 9.727,0.02c8.508,-4.201 25.186,-12.436 25.186,-12.436l1.774,0.887l-29.866,14.933l-2.132,1.066l-1.974,-0.987l-30.024,-15.012l2.103,-1.052c0,0 16.699,8.335 25.206,12.581Z" style="fill:#a0d5f4;" /></g></symbol></defs><use id="tile-49cb0a4e-6625-11e7-907b-a6006ad3dba0-usage" xlink:href="#tile-49cb0a4e-6625-11e7-907b-a6006ad3dba0" class="sprite-symbol-usage" /><use id="tile-81cd09d3-9023-45d1-a2c7-bbbee99a64a3-usage" xlink:href="#tile-81cd09d3-9023-45d1-a2c7-bbbee99a64a3" class="sprite-symbol-usage" /><use id="tile-d337bf94-4705-48f6-941a-8c5c8502a8f8-usage" xlink:href="#tile-d337bf94-4705-48f6-941a-8c5c8502a8f8" class="sprite-symbol-usage" /><use id="tile-1079ddbe-b99d-4366-9f91-df3a390970fb-usage" xlink:href="#tile-1079ddbe-b99d-4366-9f91-df3a390970fb" class="sprite-symbol-usage" /><use id="tile-adcc36d7-aad8-46d6-971d-f58055c484b2-usage" xlink:href="#tile-adcc36d7-aad8-46d6-971d-f58055c484b2" class="sprite-symbol-usage" /></svg>